<svg width="32" height="32" viewBox="0 0 32 32" fill="none" xmlns="http://www.w3.org/2000/svg">
<path d="M15 30C22.732 30 29 23.732 29 16C29 8.26801 22.732 2 15 2C7.26801 2 1 8.26801 1 16C1 23.732 7.26801 30 15 30Z" fill="white"/>
<path d="M15.5271 0C6.95144 0 0 7.16334 0 16C0 24.8366 6.95144 32 15.5271 32C24.1029 32 31.0543 24.8366 31.0543 16C31.0543 7.16334 24.1029 0 15.5271 0ZM20.3371 16.148C20.3371 13.4927 18.248 11.3397 15.6707 11.3397C13.0939 11.3397 11.0048 13.4923 11.0048 16.148C11.0048 18.8033 13.0939 20.9559 15.6707 20.9559V23.7036C11.6214 23.7036 8.33832 20.321 8.33832 16.148C8.33832 11.9751 11.621 8.5924 15.6707 8.5924C19.7205 8.5924 23.0033 11.9751 23.0033 16.148H20.3371ZM24.8363 16.148C24.8363 10.9321 20.733 6.7036 15.6707 6.7036C10.609 6.7036 6.50565 10.9321 6.50565 16.148C6.50565 21.3638 10.609 25.592 15.6707 25.592V28.7404C8.92179 28.7404 3.45023 23.1024 3.45023 16.148C3.45023 9.19327 8.92179 3.5556 15.6707 3.5556C22.4201 3.5556 27.8914 9.19327 27.8914 16.148H24.8363Z" fill="#F43E37"/>
</svg>
