<svg width="40" height="40" viewBox="0 0 40 40" fill="none" xmlns="http://www.w3.org/2000/svg">
<path d="M0 6C0 2.68629 2.68629 0 6 0H34C37.3137 0 40 2.68629 40 6V34C40 37.3137 37.3137 40 34 40H6C2.68629 40 0 37.3137 0 34V6Z" fill="#F0F0F0"/>
<path d="M26.6694 26.6694L23.3764 23.3764M25.1005 19.2155C25.1005 22.4657 22.4657 25.1005 19.2155 25.1005C15.9653 25.1005 13.3306 22.4657 13.3306 19.2155C13.3306 15.9653 15.9653 13.3306 19.2155 13.3306C22.4657 13.3306 25.1005 15.9653 25.1005 19.2155Z" stroke="#242424" stroke-width="1.5" stroke-linecap="round" stroke-linejoin="round"/>
</svg>
