<svg width="177" height="41" viewBox="0 0 177 41" fill="none" xmlns="http://www.w3.org/2000/svg">
<path d="M35.0491 27.6181H43.0085L23.2915 8H15.3321L35.0491 27.6181Z" fill="black"/>
<path d="M27.3806 8L46.3875 26.9115V8H41.2439V13.9707L35.243 8L27.3806 8Z" fill="black"/>
<path d="M12 8.65675V27.618H17.1436V21.6473L23.1444 27.618H31.0569L12 8.65675Z" fill="black"/>
<path d="M58.7997 24.6682H63.4083V27.3704H55.2815V12.9997H58.7997V24.6682Z" fill="black"/>
<path d="M69.695 27.5342C68.5703 27.5342 67.5552 27.2954 66.65 26.8177C65.7584 26.34 65.0521 25.6577 64.5308 24.7706C64.0234 23.8835 63.7696 22.8463 63.7696 21.659C63.7696 20.4854 64.0301 19.4549 64.5514 18.5679C65.0727 17.6671 65.7859 16.978 66.6911 16.5003C67.5964 16.0226 68.6114 15.7838 69.7361 15.7838C70.8609 15.7838 71.8758 16.0226 72.7812 16.5003C73.6864 16.978 74.3996 17.6671 74.9208 18.5679C75.4421 19.4549 75.7026 20.4854 75.7026 21.659C75.7026 22.8327 75.4352 23.8698 74.9002 24.7706C74.3791 25.6577 73.6589 26.34 72.7399 26.8177C71.8347 27.2954 70.8197 27.5342 69.695 27.5342ZM69.695 24.5045C70.3671 24.5045 70.9363 24.2588 71.4026 23.7675C71.8827 23.2762 72.1227 22.5734 72.1227 21.659C72.1227 20.7446 71.8896 20.0418 71.4233 19.5505C70.9706 19.0592 70.4082 18.8136 69.7361 18.8136C69.0503 18.8136 68.4811 19.0592 68.0285 19.5505C67.5758 20.0282 67.3495 20.731 67.3495 21.659C67.3495 22.5734 67.569 23.2762 68.0079 23.7675C68.4606 24.2588 69.0229 24.5045 69.695 24.5045Z" fill="black"/>
<path d="M81.3137 15.7838C82.1229 15.7838 82.8294 15.9476 83.4328 16.2751C84.0501 16.6027 84.5233 17.0326 84.8525 17.5648V15.9476H88.3707V27.35C88.3707 28.4008 88.158 29.3493 87.7328 30.1954C87.3214 31.0552 86.6835 31.7376 85.8194 32.2425C84.969 32.7475 83.906 33 82.6304 33C80.9296 33 79.5512 32.5973 78.495 31.7921C77.4389 31.0006 76.8354 29.9225 76.6844 28.5577H80.1615C80.2712 28.9945 80.5319 29.3356 80.9433 29.5813C81.3549 29.8406 81.8623 29.9702 82.4659 29.9702C83.1928 29.9702 83.7688 29.7588 84.1941 29.3356C84.633 28.9262 84.8525 28.2644 84.8525 27.35V25.7327C84.5095 26.265 84.0363 26.7017 83.4328 27.0429C82.8294 27.3704 82.1229 27.5342 81.3137 27.5342C80.3673 27.5342 79.51 27.2954 78.7419 26.8177C77.9738 26.3264 77.3634 25.6373 76.9108 24.7501C76.4719 23.8494 76.2524 22.8122 76.2524 21.6386C76.2524 20.4649 76.4719 19.4345 76.9108 18.5474C77.3634 17.6604 77.9738 16.978 78.7419 16.5003C79.51 16.0226 80.3673 15.7838 81.3137 15.7838ZM84.8525 21.659C84.8525 20.7856 84.6056 20.0964 84.1118 19.5914C83.6318 19.0864 83.0419 18.834 82.3424 18.834C81.6429 18.834 81.0463 19.0864 80.5525 19.5914C80.0723 20.0827 79.8323 20.7651 79.8323 21.6386C79.8323 22.512 80.0723 23.208 80.5525 23.7266C81.0463 24.2316 81.6429 24.484 82.3424 24.484C83.0419 24.484 83.6318 24.2316 84.1118 23.7266C84.6056 23.2216 84.8525 22.5324 84.8525 21.659Z" fill="black"/>
<path d="M95.5246 27.5342C94.3998 27.5342 93.3849 27.2954 92.4796 26.8177C91.5881 26.34 90.8816 25.6577 90.3605 24.7706C89.853 23.8835 89.5992 22.8463 89.5992 21.659C89.5992 20.4854 89.8598 19.4549 90.381 18.5679C90.9022 17.6671 91.6154 16.978 92.5208 16.5003C93.426 16.0226 94.4411 15.7838 95.5657 15.7838C96.6905 15.7838 97.7055 16.0226 98.6107 16.5003C99.516 16.978 100.229 17.6671 100.75 18.5679C101.272 19.4549 101.532 20.4854 101.532 21.659C101.532 22.8327 101.265 23.8698 100.73 24.7706C100.209 25.6577 99.4886 26.34 98.5696 26.8177C97.6643 27.2954 96.6493 27.5342 95.5246 27.5342ZM95.5246 24.5045C96.1967 24.5045 96.7659 24.2588 97.2322 23.7675C97.7124 23.2762 97.9524 22.5734 97.9524 21.659C97.9524 20.7446 97.7192 20.0418 97.2528 19.5505C96.8002 19.0592 96.2379 18.8136 95.5657 18.8136C94.88 18.8136 94.3107 19.0592 93.8581 19.5505C93.4054 20.0282 93.1791 20.731 93.1791 21.659C93.1791 22.5734 93.3986 23.2762 93.8375 23.7675C94.2901 24.2588 94.8525 24.5045 95.5246 24.5045Z" fill="black"/>
<path d="M104.551 14.7603C103.934 14.7603 103.426 14.5828 103.028 14.228C102.644 13.8595 102.452 13.4092 102.452 12.8769C102.452 12.331 102.644 11.8807 103.028 11.5258C103.426 11.1574 103.934 10.9731 104.551 10.9731C105.154 10.9731 105.648 11.1574 106.032 11.5258C106.43 11.8807 106.629 12.331 106.629 12.8769C106.629 13.4092 106.43 13.8595 106.032 14.228C105.648 14.5828 105.154 14.7603 104.551 14.7603ZM106.3 15.9476V27.3704H102.781V15.9476H106.3Z" fill="black"/>
<path d="M111.75 17.5648C112.094 17.0326 112.566 16.6027 113.17 16.2751C113.773 15.9476 114.48 15.7838 115.289 15.7838C116.236 15.7838 117.093 16.0226 117.861 16.5003C118.629 16.978 119.232 17.6604 119.672 18.5474C120.124 19.4345 120.35 20.4649 120.35 21.6386C120.35 22.8122 120.124 23.8494 119.672 24.7501C119.232 25.6373 118.629 26.3264 117.861 26.8177C117.093 27.2954 116.236 27.5342 115.289 27.5342C114.494 27.5342 113.787 27.3704 113.17 27.0429C112.566 26.7154 112.094 26.2923 111.75 25.7736V32.8158H108.232V15.9476H111.75V17.5648ZM116.771 21.6386C116.771 20.7651 116.524 20.0827 116.03 19.5914C115.55 19.0864 114.953 18.834 114.24 18.834C113.54 18.834 112.944 19.0864 112.45 19.5914C111.97 20.0964 111.73 20.7856 111.73 21.659C111.73 22.5324 111.97 23.2216 112.45 23.7266C112.944 24.2316 113.54 24.484 114.24 24.484C114.94 24.484 115.536 24.2316 116.03 23.7266C116.524 23.208 116.771 22.512 116.771 21.6386Z" fill="black"/>
<path d="M126.249 27.5342C125.247 27.5342 124.356 27.3637 123.575 27.0224C122.793 26.6813 122.175 26.2172 121.723 25.6304C121.27 25.03 121.016 24.3611 120.962 23.6242H124.439C124.48 24.02 124.665 24.3407 124.995 24.5864C125.323 24.832 125.728 24.9549 126.208 24.9549C126.647 24.9549 126.983 24.873 127.217 24.7092C127.464 24.5318 127.587 24.3066 127.587 24.0337C127.587 23.7061 127.415 23.4673 127.072 23.3171C126.729 23.1534 126.173 22.976 125.406 22.7849C124.582 22.5938 123.897 22.3959 123.348 22.1913C122.799 21.9729 122.327 21.6386 121.928 21.1882C121.531 20.7242 121.332 20.1032 121.332 19.3253C121.332 18.6702 121.51 18.0766 121.867 17.5443C122.237 16.9984 122.773 16.5685 123.471 16.2546C124.185 15.9408 125.028 15.7838 126.002 15.7838C127.443 15.7838 128.575 16.1386 129.397 16.8483C130.234 17.558 130.714 18.4997 130.837 19.6733H127.587C127.531 19.2775 127.353 18.9636 127.051 18.7316C126.764 18.4997 126.379 18.3837 125.9 18.3837C125.488 18.3837 125.173 18.4655 124.953 18.6293C124.734 18.7794 124.624 18.991 124.624 19.2639C124.624 19.5914 124.796 19.8371 125.138 20.0008C125.494 20.1646 126.044 20.3284 126.785 20.4921C127.635 20.7105 128.328 20.9288 128.862 21.1473C129.397 21.3519 129.864 21.6931 130.261 22.1708C130.673 22.6348 130.885 23.2625 130.899 24.0541C130.899 24.7229 130.707 25.3234 130.323 25.8556C129.952 26.3742 129.411 26.7836 128.698 27.0838C127.998 27.3841 127.182 27.5342 126.249 27.5342Z" fill="black"/>
<path d="M143.77 15.9476V27.3704H140.252V25.8147C139.896 26.3196 139.409 26.729 138.792 27.0429C138.188 27.3432 137.516 27.4932 136.776 27.4932C135.898 27.4932 135.122 27.3022 134.45 26.9201C133.778 26.5243 133.258 25.9579 132.887 25.2209C132.517 24.484 132.332 23.6175 132.332 22.6212V15.9476H135.829V22.1503C135.829 22.9146 136.028 23.5082 136.425 23.9313C136.824 24.3544 137.358 24.5659 138.03 24.5659C138.716 24.5659 139.258 24.3544 139.656 23.9313C140.054 23.5082 140.252 22.9146 140.252 22.1503V15.9476H143.77Z" fill="black"/>
<path d="M160.329 15.8248C161.756 15.8248 162.887 16.2546 163.724 17.1144C164.575 17.9742 165 19.1684 165 20.6969V27.3704H161.502V21.1677C161.502 20.4307 161.304 19.8644 160.905 19.4686C160.521 19.0592 159.987 18.8545 159.301 18.8545C158.615 18.8545 158.073 19.0592 157.675 19.4686C157.292 19.8644 157.099 20.4307 157.099 21.1677V27.3704H153.601V21.1677C153.601 20.4307 153.403 19.8644 153.005 19.4686C152.621 19.0592 152.086 18.8545 151.4 18.8545C150.714 18.8545 150.173 19.0592 149.774 19.4686C149.391 19.8644 149.199 20.4307 149.199 21.1677V27.3704H145.681V15.9476H149.199V17.3805C149.555 16.9029 150.021 16.5276 150.598 16.2546C151.174 15.9681 151.825 15.8248 152.552 15.8248C153.416 15.8248 154.185 16.009 154.857 16.3775C155.542 16.746 156.077 17.2714 156.461 17.9538C156.86 17.326 157.401 16.8142 158.087 16.4184C158.773 16.0226 159.521 15.8248 160.329 15.8248Z" fill="black"/>
</svg>
