<svg width="114" height="30" viewBox="0 0 114 30" fill="none" xmlns="http://www.w3.org/2000/svg">
<rect x="3" y="3" width="24" height="24" stroke="url(#paint0_linear_2_565)" stroke-width="6"/>
<g clip-path="url(#clip0_2_565)">
<rect x="3" y="3" width="24" height="24" stroke="url(#paint1_linear_2_565)" stroke-width="6"/>
</g>
<g clip-path="url(#clip1_2_565)">
<rect x="3" y="3" width="24" height="24" stroke="url(#paint2_linear_2_565)" stroke-width="6"/>
</g>
<path d="M40.5762 1.00876V9.54001H38.8242V1.00876H40.5762ZM43.2012 1.00876V2.38571H36.2402V1.00876H43.2012ZM49.8926 4.48337V5.85446H45.4395V4.48337H49.8926ZM45.9609 1.00876V9.54001H44.2031V1.00876H45.9609ZM51.1465 1.00876V9.54001H49.3945V1.00876H51.1465ZM54.5449 1.00876V9.54001H52.793V1.00876H54.5449ZM60.6328 7.30759C60.6328 7.15524 60.6094 7.01852 60.5625 6.89743C60.5195 6.77243 60.4375 6.65915 60.3164 6.55759C60.1953 6.45212 60.0254 6.3486 59.8066 6.24704C59.5879 6.14548 59.3047 6.04001 58.957 5.93063C58.5703 5.80563 58.2031 5.66501 57.8555 5.50876C57.5117 5.35251 57.207 5.17087 56.9414 4.96384C56.6797 4.7529 56.4727 4.50876 56.3203 4.23141C56.1719 3.95407 56.0977 3.63181 56.0977 3.26462C56.0977 2.90915 56.1758 2.58688 56.332 2.29782C56.4883 2.00485 56.707 1.75485 56.9883 1.54782C57.2695 1.33688 57.6016 1.17477 57.9844 1.06149C58.3711 0.948212 58.7949 0.891571 59.2559 0.891571C59.8848 0.891571 60.4336 1.00485 60.9023 1.23141C61.3711 1.45798 61.7344 1.76852 61.9922 2.16306C62.2539 2.55759 62.3848 3.00876 62.3848 3.51657H60.6387C60.6387 3.26657 60.5859 3.04782 60.4805 2.86032C60.3789 2.66891 60.2227 2.51852 60.0117 2.40915C59.8047 2.29977 59.543 2.24509 59.2266 2.24509C58.9219 2.24509 58.668 2.29196 58.4648 2.38571C58.2617 2.47556 58.1094 2.5986 58.0078 2.75485C57.9062 2.9072 57.8555 3.07907 57.8555 3.27048C57.8555 3.41501 57.8906 3.54587 57.9609 3.66306C58.0352 3.78024 58.1445 3.88962 58.2891 3.99118C58.4336 4.09274 58.6113 4.18845 58.8223 4.27829C59.0332 4.36813 59.2773 4.45602 59.5547 4.54196C60.0195 4.68259 60.4277 4.84079 60.7793 5.01657C61.1348 5.19235 61.4316 5.38962 61.6699 5.60837C61.9082 5.82712 62.0879 6.07516 62.209 6.35251C62.3301 6.62985 62.3906 6.94431 62.3906 7.29587C62.3906 7.66696 62.3184 7.99899 62.1738 8.29196C62.0293 8.58493 61.8203 8.83298 61.5469 9.0361C61.2734 9.23923 60.9473 9.39352 60.5684 9.49899C60.1895 9.60446 59.7656 9.6572 59.2969 9.6572C58.875 9.6572 58.459 9.60251 58.0488 9.49313C57.6387 9.37985 57.2656 9.20993 56.9297 8.98337C56.5977 8.75681 56.332 8.46774 56.1328 8.11618C55.9336 7.76462 55.834 7.3486 55.834 6.86813H57.5977C57.5977 7.13376 57.6387 7.35837 57.7207 7.54196C57.8027 7.72556 57.918 7.87399 58.0664 7.98727C58.2188 8.10056 58.3984 8.18259 58.6055 8.23337C58.8164 8.28415 59.0469 8.30954 59.2969 8.30954C59.6016 8.30954 59.8516 8.26657 60.0469 8.18063C60.2461 8.0947 60.3926 7.97556 60.4863 7.82321C60.584 7.67087 60.6328 7.49899 60.6328 7.30759ZM68.4434 1.00876V9.54001H66.6914V1.00876H68.4434ZM74.5312 7.30759C74.5312 7.15524 74.5078 7.01852 74.4609 6.89743C74.418 6.77243 74.3359 6.65915 74.2148 6.55759C74.0938 6.45212 73.9238 6.3486 73.7051 6.24704C73.4863 6.14548 73.2031 6.04001 72.8555 5.93063C72.4688 5.80563 72.1016 5.66501 71.7539 5.50876C71.4102 5.35251 71.1055 5.17087 70.8398 4.96384C70.5781 4.7529 70.3711 4.50876 70.2188 4.23141C70.0703 3.95407 69.9961 3.63181 69.9961 3.26462C69.9961 2.90915 70.0742 2.58688 70.2305 2.29782C70.3867 2.00485 70.6055 1.75485 70.8867 1.54782C71.168 1.33688 71.5 1.17477 71.8828 1.06149C72.2695 0.948212 72.6934 0.891571 73.1543 0.891571C73.7832 0.891571 74.332 1.00485 74.8008 1.23141C75.2695 1.45798 75.6328 1.76852 75.8906 2.16306C76.1523 2.55759 76.2832 3.00876 76.2832 3.51657H74.5371C74.5371 3.26657 74.4844 3.04782 74.3789 2.86032C74.2773 2.66891 74.1211 2.51852 73.9102 2.40915C73.7031 2.29977 73.4414 2.24509 73.125 2.24509C72.8203 2.24509 72.5664 2.29196 72.3633 2.38571C72.1602 2.47556 72.0078 2.5986 71.9062 2.75485C71.8047 2.9072 71.7539 3.07907 71.7539 3.27048C71.7539 3.41501 71.7891 3.54587 71.8594 3.66306C71.9336 3.78024 72.043 3.88962 72.1875 3.99118C72.332 4.09274 72.5098 4.18845 72.7207 4.27829C72.9316 4.36813 73.1758 4.45602 73.4531 4.54196C73.918 4.68259 74.3262 4.84079 74.6777 5.01657C75.0332 5.19235 75.3301 5.38962 75.5684 5.60837C75.8066 5.82712 75.9863 6.07516 76.1074 6.35251C76.2285 6.62985 76.2891 6.94431 76.2891 7.29587C76.2891 7.66696 76.2168 7.99899 76.0723 8.29196C75.9277 8.58493 75.7188 8.83298 75.4453 9.0361C75.1719 9.23923 74.8457 9.39352 74.4668 9.49899C74.0879 9.60446 73.6641 9.6572 73.1953 9.6572C72.7734 9.6572 72.3574 9.60251 71.9473 9.49313C71.5371 9.37985 71.1641 9.20993 70.8281 8.98337C70.4961 8.75681 70.2305 8.46774 70.0312 8.11618C69.832 7.76462 69.7324 7.3486 69.7324 6.86813H71.4961C71.4961 7.13376 71.5371 7.35837 71.6191 7.54196C71.7012 7.72556 71.8164 7.87399 71.9648 7.98727C72.1172 8.10056 72.2969 8.18259 72.5039 8.23337C72.7148 8.28415 72.9453 8.30954 73.1953 8.30954C73.5 8.30954 73.75 8.26657 73.9453 8.18063C74.1445 8.0947 74.291 7.97556 74.3848 7.82321C74.4824 7.67087 74.5312 7.49899 74.5312 7.30759Z" fill="white"/>
<path d="M38.5049 17.0031H41.0186L43.875 25.9064L46.7314 17.0031H49.2451L44.8945 29.8H42.8555L38.5049 17.0031ZM36.9756 17.0031H39.5771L40.0605 26.8117V29.8H36.9756V17.0031ZM48.1729 17.0031H50.7832V29.8H47.6895V26.8117L48.1729 17.0031ZM54.835 17.0031L57.1904 22.5578L59.5547 17.0031H62.877L58.7637 25.2033V29.8H55.626V25.2033L51.5039 17.0031H54.835ZM76.7549 27.4269V29.8H70.2861V27.4269H76.7549ZM71.3848 17.0031V29.8H68.2998V17.0031H71.3848ZM88.3213 23.1467V23.6652C88.3213 24.6437 88.1836 25.5226 87.9082 26.3019C87.6387 27.0754 87.2549 27.7375 86.7568 28.2883C86.2588 28.8332 85.6699 29.2521 84.9902 29.5451C84.3105 29.8322 83.5605 29.9758 82.7402 29.9758C81.9141 29.9758 81.1582 29.8322 80.4727 29.5451C79.793 29.2521 79.2012 28.8332 78.6973 28.2883C78.1992 27.7375 77.8125 27.0754 77.5371 26.3019C77.2676 25.5226 77.1328 24.6437 77.1328 23.6652V23.1467C77.1328 22.1682 77.2676 21.2892 77.5371 20.5099C77.8125 19.7307 78.1963 19.0685 78.6885 18.5236C79.1865 17.9728 79.7754 17.5539 80.4551 17.2668C81.1406 16.9738 81.8965 16.8273 82.7227 16.8273C83.543 16.8273 84.293 16.9738 84.9727 17.2668C85.6582 17.5539 86.25 17.9728 86.748 18.5236C87.2461 19.0685 87.6328 19.7307 87.9082 20.5099C88.1836 21.2892 88.3213 22.1682 88.3213 23.1467ZM85.1924 23.6652V23.1291C85.1924 22.4963 85.1367 21.9396 85.0254 21.4592C84.9199 20.9728 84.7617 20.5656 84.5508 20.2375C84.3398 19.9094 84.0791 19.6633 83.7686 19.4992C83.4639 19.3293 83.1152 19.2443 82.7227 19.2443C82.3125 19.2443 81.9551 19.3293 81.6504 19.4992C81.3457 19.6633 81.0908 19.9094 80.8857 20.2375C80.6807 20.5656 80.5254 20.9728 80.4199 21.4592C80.3203 21.9396 80.2705 22.4963 80.2705 23.1291V23.6652C80.2705 24.2922 80.3203 24.8488 80.4199 25.3351C80.5254 25.8156 80.6807 26.2228 80.8857 26.5568C81.0967 26.8908 81.3545 27.1428 81.6592 27.3127C81.9697 27.4826 82.3301 27.5676 82.7402 27.5676C83.1328 27.5676 83.4814 27.4826 83.7861 27.3127C84.0908 27.1428 84.3457 26.8908 84.5508 26.5568C84.7617 26.2228 84.9199 25.8156 85.0254 25.3351C85.1367 24.8488 85.1924 24.2922 85.1924 23.6652ZM100.389 22.9621V28.218C100.172 28.4582 99.8379 28.716 99.3867 28.9914C98.9414 29.2609 98.3789 29.4924 97.6992 29.6857C97.0195 29.8791 96.2197 29.9758 95.2998 29.9758C94.4502 29.9758 93.6797 29.841 92.9883 29.5715C92.2969 29.2961 91.7021 28.8947 91.2041 28.3674C90.7119 27.8342 90.3311 27.1838 90.0615 26.4162C89.7979 25.6428 89.666 24.758 89.666 23.7619V23.05C89.666 22.0539 89.8008 21.1691 90.0703 20.3957C90.3398 19.6223 90.7178 18.9719 91.2041 18.4445C91.6963 17.9113 92.2734 17.507 92.9355 17.2316C93.6035 16.9562 94.3359 16.8185 95.1328 16.8185C96.3105 16.8185 97.2686 17.006 98.0068 17.381C98.7451 17.7502 99.3047 18.2629 99.6855 18.9191C100.066 19.5695 100.298 20.3224 100.38 21.1779H97.418C97.3594 20.756 97.248 20.3986 97.084 20.1057C96.9258 19.8068 96.6973 19.5812 96.3984 19.4289C96.0996 19.2707 95.7129 19.1916 95.2383 19.1916C94.8691 19.1916 94.5322 19.2707 94.2275 19.4289C93.9287 19.5871 93.6738 19.8273 93.4629 20.1496C93.252 20.466 93.0879 20.8644 92.9707 21.3449C92.8594 21.8254 92.8037 22.3879 92.8037 23.0324V23.7619C92.8037 24.4006 92.8564 24.9601 92.9619 25.4406C93.0732 25.9211 93.2373 26.3224 93.4541 26.6447C93.6768 26.9611 93.958 27.2014 94.2979 27.3654C94.6436 27.5236 95.0508 27.6027 95.5195 27.6027C95.8477 27.6027 96.1289 27.5764 96.3633 27.5236C96.5977 27.465 96.791 27.3947 96.9434 27.3127C97.1016 27.2248 97.2217 27.1428 97.3037 27.0666V25.0803H95.1592V22.9621H100.389ZM113.019 23.1467V23.6652C113.019 24.6437 112.881 25.5226 112.605 26.3019C112.336 27.0754 111.952 27.7375 111.454 28.2883C110.956 28.8332 110.367 29.2521 109.688 29.5451C109.008 29.8322 108.258 29.9758 107.438 29.9758C106.611 29.9758 105.855 29.8322 105.17 29.5451C104.49 29.2521 103.898 28.8332 103.395 28.2883C102.896 27.7375 102.51 27.0754 102.234 26.3019C101.965 25.5226 101.83 24.6437 101.83 23.6652V23.1467C101.83 22.1682 101.965 21.2892 102.234 20.5099C102.51 19.7307 102.894 19.0685 103.386 18.5236C103.884 17.9728 104.473 17.5539 105.152 17.2668C105.838 16.9738 106.594 16.8273 107.42 16.8273C108.24 16.8273 108.99 16.9738 109.67 17.2668C110.355 17.5539 110.947 17.9728 111.445 18.5236C111.943 19.0685 112.33 19.7307 112.605 20.5099C112.881 21.2892 113.019 22.1682 113.019 23.1467ZM109.89 23.6652V23.1291C109.89 22.4963 109.834 21.9396 109.723 21.4592C109.617 20.9728 109.459 20.5656 109.248 20.2375C109.037 19.9094 108.776 19.6633 108.466 19.4992C108.161 19.3293 107.812 19.2443 107.42 19.2443C107.01 19.2443 106.652 19.3293 106.348 19.4992C106.043 19.6633 105.788 19.9094 105.583 20.2375C105.378 20.5656 105.223 20.9728 105.117 21.4592C105.018 21.9396 104.968 22.4963 104.968 23.1291V23.6652C104.968 24.2922 105.018 24.8488 105.117 25.3351C105.223 25.8156 105.378 26.2228 105.583 26.5568C105.794 26.8908 106.052 27.1428 106.356 27.3127C106.667 27.4826 107.027 27.5676 107.438 27.5676C107.83 27.5676 108.179 27.4826 108.483 27.3127C108.788 27.1428 109.043 26.8908 109.248 26.5568C109.459 26.2228 109.617 25.8156 109.723 25.3351C109.834 24.8488 109.89 24.2922 109.89 23.6652Z" fill="white"/>
<defs>
<linearGradient id="paint0_linear_2_565" x1="0" y1="15" x2="30" y2="15" gradientUnits="userSpaceOnUse">
<stop stop-color="#F12711"/>
<stop offset="1" stop-color="#F5AF19"/>
</linearGradient>
<linearGradient id="paint1_linear_2_565" x1="0" y1="15" x2="30" y2="15" gradientUnits="userSpaceOnUse">
<stop stop-color="#40E0D0"/>
<stop offset="0.5" stop-color="#FF8C00"/>
<stop offset="1" stop-color="#FF0080"/>
</linearGradient>
<linearGradient id="paint2_linear_2_565" x1="0" y1="15" x2="30" y2="15" gradientUnits="userSpaceOnUse">
<stop stop-color="#12C2E9"/>
<stop offset="0.5" stop-color="#C471ED"/>
<stop offset="1" stop-color="#F64F59"/>
</linearGradient>
<clipPath id="clip0_2_565">
<rect width="15" height="15" fill="white"/>
</clipPath>
<clipPath id="clip1_2_565">
<rect width="15" height="15" fill="white" transform="translate(15 15)"/>
</clipPath>
</defs>
</svg>
