<svg width="40" height="40" viewBox="0 0 40 40" fill="none" xmlns="http://www.w3.org/2000/svg">
<path d="M0 6C0 2.68629 2.68629 0 6 0H34C37.3137 0 40 2.68629 40 6V34C40 37.3137 37.3137 40 34 40H6C2.68629 40 0 37.3137 0 34V6Z" fill="#F0F0F0"/>
<path d="M13.25 15.5L15.5 12.5H24.5L26.75 15.5M13.25 15.5V26C13.25 26.3978 13.408 26.7794 13.6893 27.0607C13.9706 27.342 14.3522 27.5 14.75 27.5H25.25C25.6478 27.5 26.0294 27.342 26.3107 27.0607C26.592 26.7794 26.75 26.3978 26.75 26V15.5M13.25 15.5H26.75M23 18.5C23 19.2956 22.6839 20.0587 22.1213 20.6213C21.5587 21.1839 20.7956 21.5 20 21.5C19.2044 21.5 18.4413 21.1839 17.8787 20.6213C17.3161 20.0587 17 19.2956 17 18.5" stroke="#242424" stroke-width="1.5" stroke-linecap="round" stroke-linejoin="round"/>
</svg>
