<svg width="32" height="32" viewBox="0 0 32 32" fill="none" xmlns="http://www.w3.org/2000/svg">
<path d="M31.6591 16C31.6591 24.8889 24.5265 32 15.8921 32C7.25782 32 0 24.8889 0 16C0 7.11112 7.13268 0 15.767 0C24.4013 0 31.6591 7.11112 31.6591 16Z" fill="url(#paint0_linear_2_34)"/>
<path d="M4.66979 17.069C4.6759 17.0161 4.71341 16.9789 4.76067 16.9789C4.80622 16.9789 4.84396 17.0161 4.85103 17.0687L5.04736 18.3457L4.85103 19.601C4.84373 19.6536 4.80645 19.6902 4.76067 19.6902C4.71338 19.6902 4.6759 19.6533 4.66979 19.6005L4.50415 18.3457L4.66979 17.069Z" fill="white"/>
<path d="M5.59817 16.1888C5.64591 16.1888 5.68464 16.2267 5.69244 16.2815L5.94551 18.3458L5.69219 20.3649C5.68441 20.4196 5.64566 20.4576 5.59817 20.4576C5.54995 20.4576 5.51024 20.4185 5.5039 20.3644L5.28125 18.3458L5.5039 16.2815C5.51047 16.2279 5.55018 16.1888 5.59817 16.1888Z" fill="white"/>
<path d="M9.03004 14.5498C9.03441 14.4534 9.11 14.3774 9.20135 14.3774C9.29216 14.3774 9.36741 14.4534 9.37283 14.5498L9.57327 18.3476L9.37283 20.8022V20.8015C9.36749 20.8977 9.29216 20.9736 9.20135 20.9736C9.11 20.9736 9.03467 20.8979 9.03004 20.802L8.85278 18.3476L9.03004 14.5498Z" fill="white"/>
<path d="M7.252 15.8302C7.25762 15.7543 7.31486 15.6975 7.38501 15.6975C7.45443 15.6975 7.51167 15.7543 7.51778 15.8297L7.7448 18.3466L7.51778 20.7812C7.51167 20.8566 7.45443 20.9135 7.38501 20.9135C7.31484 20.9135 7.25735 20.8566 7.252 20.7812L7.05225 18.3466L7.252 15.8302Z" fill="white"/>
<path d="M11.2562 20.7619C11.2516 20.8806 11.1595 20.9733 11.0463 20.9733C10.9322 20.9733 10.8399 20.8803 10.8363 20.7627L10.6821 18.3485L10.8363 13.2928C10.84 13.1741 10.9323 13.0812 11.0465 13.0812C11.1598 13.0812 11.2519 13.1739 11.2565 13.2925L11.4302 18.3488L11.2562 20.7619Z" fill="white"/>
<path d="M15.1121 20.6944C15.1092 20.8545 14.9806 20.9848 14.8247 20.9848C14.6687 20.9848 14.5397 20.8545 14.5372 20.6958C14.5372 20.6958 14.4288 18.3522 14.4288 18.3485L14.5372 12.511C14.5396 12.3506 14.6685 12.2203 14.8247 12.2203C14.9806 12.2203 15.1094 12.3509 15.1121 12.5108L15.2334 18.3504L15.1121 20.6944Z" fill="white"/>
<path d="M13.17 20.724C13.1663 20.8649 13.0569 20.9754 12.9212 20.9754C12.7846 20.9754 12.6753 20.8649 12.6723 20.7255L12.5408 18.3495L12.6721 13.2563C12.675 13.1154 12.7844 13.0051 12.9211 13.0051C13.0567 13.0051 13.166 13.1154 13.1697 13.2563L13.3176 18.3492L13.17 20.7257V20.724Z" fill="white"/>
<path d="M8.4418 20.8012C8.43568 20.8875 8.37041 20.953 8.28974 20.953C8.20794 20.953 8.14293 20.8875 8.13751 20.8009L7.94922 18.3463L8.13751 16.0121C8.14267 15.9253 8.20794 15.8597 8.28974 15.8597C8.37067 15.8597 8.43594 15.9248 8.4418 16.011L8.65564 18.3463L8.4418 20.8012Z" fill="white"/>
<path d="M6.60131 20.7063C6.59449 20.7716 6.54674 20.8188 6.48781 20.8188C6.42787 20.8188 6.38012 20.7713 6.37427 20.7059L6.16284 18.3461L6.37427 15.8969C6.38036 15.8317 6.42809 15.7842 6.48779 15.7842C6.54673 15.7842 6.59447 15.8315 6.60154 15.8969L6.84149 18.3461L6.60131 20.7063Z" fill="white"/>
<path d="M13.6005 13.4426C13.6035 13.2903 13.7216 13.1714 13.869 13.1714C14.0161 13.1714 14.1335 13.2903 14.1369 13.4421L14.2714 18.3499L14.1369 20.7111V20.7091C14.1335 20.8613 14.0161 20.98 13.869 20.98C13.7214 20.98 13.6035 20.8611 13.6005 20.7108L13.4808 18.3497L13.6005 13.4426Z" fill="white"/>
<path d="M10.3113 20.7863C10.3064 20.8938 10.2224 20.9782 10.1206 20.9782C10.0178 20.9782 9.93392 20.8938 9.9298 20.7873L9.76392 18.3483L9.92954 13.6817C9.934 13.5742 10.0178 13.4899 10.1206 13.4899C10.2224 13.4899 10.3062 13.5739 10.3113 13.6817L10.4984 18.3483L10.3113 20.7863Z" fill="white"/>
<path d="M12.2096 20.7478V20.7475C12.2052 20.8764 12.1049 20.9777 11.9804 20.9777C11.8555 20.9777 11.7546 20.876 11.7512 20.7476L11.6082 18.3485L11.751 13.1221C11.7543 12.9921 11.8552 12.8905 11.9804 12.8905C12.1049 12.8905 12.2057 12.9923 12.2096 13.1221L12.3704 18.3488L12.2096 20.7465V20.7475C12.2096 20.7472 12.2096 20.747 12.2096 20.7468V20.7478Z" fill="white"/>
<path d="M23.2913 15.5558C23.6231 15.4147 23.9873 15.3364 24.369 15.3364C25.9075 15.3364 27.1547 16.6024 27.1547 18.164C27.1547 19.7255 25.9073 20.9914 24.3688 20.9914C24.319 20.9914 16.6532 20.9875 16.6461 20.9867C16.4797 20.9696 16.3475 20.8255 16.3453 20.6525V11.6794C16.3473 11.5145 16.4033 11.4295 16.6135 11.3469C17.1545 11.1346 17.7672 11.009 18.3956 11.009C20.9641 11.009 23.0696 13.0078 23.2913 15.5558Z" fill="white"/>
<path d="M15.4685 11.982C15.471 11.8108 15.6084 11.6714 15.7757 11.6714C15.9426 11.6714 16.0799 11.8108 16.0824 11.9816L16.219 18.351L16.0824 20.6628V20.66C16.0799 20.8314 15.9426 20.9705 15.7757 20.9705C15.6084 20.9705 15.471 20.8314 15.4688 20.6625L15.3428 18.351L15.4685 11.982Z" fill="white"/>
<defs>
<linearGradient id="paint0_linear_2_34" x1="15.8296" y1="0" x2="15.8296" y2="32" gradientUnits="userSpaceOnUse">
<stop stop-color="#FF7602"/>
<stop offset="1" stop-color="#FF3502"/>
</linearGradient>
</defs>
</svg>
